<svg width="87" height="52" viewBox="0 0 87 52" fill="none" xmlns="http://www.w3.org/2000/svg">
<path d="M4.536 39.1429H10.176V41.3509H1.8V24.6709H4.536V39.1429ZM15.2001 26.8789V31.7749H20.9601V34.0069H15.2001V39.1189H21.6801V41.3509H12.4641V24.6469H21.6801V26.8789H15.2001ZM27.786 39.1429H33.426V41.3509H25.05V24.6709H27.786V39.1429ZM38.4501 24.6709V41.3509H35.7141V24.6709H38.4501ZM47.5382 41.5189C46.4182 41.5189 45.4102 41.3269 44.5142 40.9429C43.6182 40.5429 42.9142 39.9829 42.4022 39.2629C41.8902 38.5429 41.6342 37.7029 41.6342 36.7429H44.5622C44.6262 37.4629 44.9062 38.0549 45.4022 38.5189C45.9142 38.9829 46.6262 39.2149 47.5382 39.2149C48.4822 39.2149 49.2182 38.9909 49.7462 38.5429C50.2742 38.0789 50.5382 37.4869 50.5382 36.7669C50.5382 36.2069 50.3702 35.7509 50.0342 35.3989C49.7142 35.0469 49.3062 34.7749 48.8102 34.5829C48.3302 34.3909 47.6582 34.1829 46.7942 33.9589C45.7062 33.6709 44.8182 33.3829 44.1302 33.0949C43.4582 32.7909 42.8822 32.3269 42.4022 31.7029C41.9222 31.0789 41.6822 30.2469 41.6822 29.2069C41.6822 28.2469 41.9222 27.4069 42.4022 26.6869C42.8822 25.9669 43.5542 25.4149 44.4182 25.0309C45.2822 24.6469 46.2822 24.4549 47.4182 24.4549C49.0342 24.4549 50.3542 24.8629 51.3782 25.6789C52.4182 26.4789 52.9942 27.5829 53.1062 28.9909H50.0822C50.0342 28.3829 49.7462 27.8629 49.2182 27.4309C48.6902 26.9989 47.9942 26.7829 47.1302 26.7829C46.3462 26.7829 45.7062 26.9829 45.2102 27.3829C44.7142 27.7829 44.4662 28.3589 44.4662 29.1109C44.4662 29.6229 44.6182 30.0469 44.9222 30.3829C45.2422 30.7029 45.6422 30.9589 46.1222 31.1509C46.6022 31.3429 47.2582 31.5509 48.0902 31.7749C49.1942 32.0789 50.0902 32.3829 50.7782 32.6869C51.4822 32.9909 52.0742 33.4629 52.5542 34.1029C53.0502 34.7269 53.2982 35.5669 53.2982 36.6229C53.2982 37.4709 53.0662 38.2709 52.6022 39.0229C52.1542 39.7749 51.4902 40.3829 50.6102 40.8469C49.7462 41.2949 48.7222 41.5189 47.5382 41.5189Z" fill="white"/>
<path d="M2.52 6.8772C2.68 6.8772 2.82 6.9372 2.94 7.0572C3.07333 7.1772 3.14 7.32386 3.14 7.4972V20.2572C3.12667 20.4305 3.05333 20.5772 2.92 20.6972C2.8 20.8172 2.66 20.8772 2.5 20.8772C2.31333 20.8772 2.16 20.8172 2.04 20.6972C1.93333 20.5772 1.88 20.4305 1.88 20.2572V7.4972C1.88 7.32386 1.94 7.1772 2.06 7.0572C2.18 6.9372 2.33333 6.8772 2.52 6.8772ZM11.9 6.8772C12.0867 6.8772 12.2333 6.9372 12.34 7.0572C12.46 7.1772 12.52 7.32386 12.52 7.4972V20.2572C12.5067 20.4305 12.44 20.5772 12.32 20.6972C12.2133 20.8172 12.0667 20.8772 11.88 20.8772C11.7067 20.8772 11.56 20.8172 11.44 20.6972C11.32 20.5772 11.26 20.4305 11.26 20.2572V7.4972C11.26 7.32386 11.32 7.1772 11.44 7.0572C11.5733 6.9372 11.7267 6.8772 11.9 6.8772ZM2.42 13.1372H11.92L11.9 14.2972H2.34L2.42 13.1372ZM16.8745 6.8772H24.2145C24.3745 6.8772 24.5145 6.9372 24.6345 7.0572C24.7545 7.16386 24.8145 7.30386 24.8145 7.4772C24.8145 7.65053 24.7545 7.79053 24.6345 7.8972C24.5145 8.00386 24.3745 8.0572 24.2145 8.0572H17.3345L17.5345 7.7172V13.3372L17.3145 13.0772H23.3145C23.4745 13.0772 23.6145 13.1372 23.7345 13.2572C23.8545 13.3772 23.9145 13.5172 23.9145 13.6772C23.9145 13.8505 23.8545 13.9905 23.7345 14.0972C23.6145 14.2039 23.4745 14.2572 23.3145 14.2572H17.3545L17.5345 14.0572V19.8172L17.4345 19.6972H24.2145C24.3745 19.6972 24.5145 19.7572 24.6345 19.8772C24.7545 19.9972 24.8145 20.1372 24.8145 20.2972C24.8145 20.4705 24.7545 20.6105 24.6345 20.7172C24.5145 20.8239 24.3745 20.8772 24.2145 20.8772H16.8745C16.7145 20.8772 16.5745 20.8172 16.4545 20.6972C16.3345 20.5772 16.2745 20.4372 16.2745 20.2772V7.4772C16.2745 7.3172 16.3345 7.1772 16.4545 7.0572C16.5745 6.9372 16.7145 6.8772 16.8745 6.8772ZM37.8817 6.8772C38.0551 6.8772 38.1884 6.93053 38.2817 7.0372C38.3884 7.14386 38.4417 7.2772 38.4417 7.4372V20.2372C38.4417 20.4372 38.3751 20.5972 38.2417 20.7172C38.1217 20.8239 37.9817 20.8772 37.8217 20.8772C37.7417 20.8772 37.6551 20.8639 37.5617 20.8372C37.4684 20.7972 37.3951 20.7439 37.3417 20.6772L28.4217 8.6572L28.7617 8.4772V20.3372C28.7617 20.4839 28.7084 20.6105 28.6017 20.7172C28.4951 20.8239 28.3617 20.8772 28.2017 20.8772C28.0284 20.8772 27.8884 20.8239 27.7817 20.7172C27.6884 20.6105 27.6417 20.4839 27.6417 20.3372V7.4772C27.6417 7.2772 27.7017 7.13053 27.8217 7.0372C27.9417 6.93053 28.0751 6.8772 28.2217 6.8772C28.3017 6.8772 28.3884 6.8972 28.4817 6.9372C28.5751 6.96386 28.6484 7.0172 28.7017 7.0972L37.5217 18.9772L37.3217 19.3372V7.4372C37.3217 7.2772 37.3751 7.14386 37.4817 7.0372C37.6017 6.93053 37.7351 6.8772 37.8817 6.8772ZM47.8925 6.8772C48.8792 6.8772 49.7392 7.06386 50.4725 7.4372C51.2192 7.81053 51.8325 8.33053 52.3125 8.9972C52.7925 9.65053 53.1458 10.3972 53.3725 11.2372C53.6125 12.0772 53.7325 12.9572 53.7325 13.8772C53.7325 15.1572 53.5192 16.3305 53.0925 17.3972C52.6792 18.4505 52.0392 19.2972 51.1725 19.9372C50.3192 20.5639 49.2258 20.8772 47.8925 20.8772H42.7925C42.6325 20.8772 42.4925 20.8172 42.3725 20.6972C42.2525 20.5772 42.1925 20.4372 42.1925 20.2772V7.4772C42.1925 7.3172 42.2525 7.1772 42.3725 7.0572C42.4925 6.9372 42.6325 6.8772 42.7925 6.8772H47.8925ZM47.6925 19.6972C48.8258 19.6972 49.7392 19.4372 50.4325 18.9172C51.1258 18.3972 51.6325 17.6972 51.9525 16.8172C52.2858 15.9239 52.4525 14.9439 52.4525 13.8772C52.4525 13.1039 52.3592 12.3705 52.1725 11.6772C51.9992 10.9705 51.7192 10.3505 51.3325 9.8172C50.9592 9.27053 50.4658 8.84386 49.8525 8.5372C49.2525 8.2172 48.5325 8.0572 47.6925 8.0572H43.3125L43.4525 7.8772V19.8972L43.3325 19.6972H47.6925ZM57.2475 20.8772C57.0475 20.8772 56.8808 20.8172 56.7475 20.6972C56.6275 20.5772 56.5675 20.4372 56.5675 20.2772V7.4772C56.5675 7.3172 56.6275 7.1772 56.7475 7.0572C56.8675 6.9372 57.0075 6.8772 57.1675 6.8772H62.5675C63.3275 6.8772 64.0075 7.04386 64.6075 7.3772C65.2075 7.6972 65.6742 8.14386 66.0075 8.7172C66.3542 9.29053 66.5275 9.9372 66.5275 10.6572C66.5275 11.2439 66.4208 11.7839 66.2075 12.2772C65.9942 12.7705 65.6942 13.1905 65.3075 13.5372C64.9208 13.8705 64.4875 14.1172 64.0075 14.2772L63.3075 14.0572C63.8008 14.0972 64.2608 14.2572 64.6875 14.5372C65.1142 14.8039 65.4542 15.1772 65.7075 15.6572C65.9742 16.1239 66.1142 16.6905 66.1275 17.3572C66.1408 17.9305 66.1675 18.3772 66.2075 18.6972C66.2608 19.0172 66.3342 19.2572 66.4275 19.4172C66.5208 19.5772 66.6408 19.7039 66.7875 19.7972C66.9208 19.8772 67.0075 19.9905 67.0475 20.1372C67.1008 20.2839 67.0875 20.4239 67.0075 20.5572C66.9542 20.6639 66.8742 20.7439 66.7675 20.7972C66.6742 20.8372 66.5742 20.8572 66.4675 20.8572C66.3608 20.8572 66.2542 20.8305 66.1475 20.7772C65.9608 20.6705 65.7675 20.5039 65.5675 20.2772C65.3808 20.0505 65.2208 19.7172 65.0875 19.2772C64.9675 18.8372 64.9075 18.2239 64.9075 17.4372C64.9075 16.9172 64.8208 16.4905 64.6475 16.1572C64.4875 15.8239 64.2742 15.5705 64.0075 15.3972C63.7542 15.2105 63.4675 15.0839 63.1475 15.0172C62.8408 14.9372 62.5475 14.8972 62.2675 14.8972H57.6075L57.8275 14.6172V20.2772C57.8275 20.4372 57.7742 20.5772 57.6675 20.6972C57.5608 20.8172 57.4208 20.8772 57.2475 20.8772ZM57.6075 13.7972H62.6275C63.0808 13.7572 63.5075 13.6105 63.9075 13.3572C64.3075 13.0905 64.6275 12.7305 64.8675 12.2772C65.1208 11.8239 65.2475 11.2972 65.2475 10.6972C65.2475 9.9372 64.9875 9.31053 64.4675 8.8172C63.9608 8.31053 63.2942 8.0572 62.4675 8.0572H57.6875L57.8275 7.7772V14.0772L57.6075 13.7972ZM71.2259 20.2572C71.2126 20.4305 71.1393 20.5772 71.0059 20.6972C70.8859 20.8172 70.7459 20.8772 70.5859 20.8772C70.3993 20.8772 70.2459 20.8172 70.1259 20.6972C70.0193 20.5772 69.9659 20.4305 69.9659 20.2572V7.4972C69.9659 7.32386 70.0259 7.1772 70.1459 7.0572C70.2659 6.9372 70.4193 6.8772 70.6059 6.8772C70.7659 6.8772 70.9059 6.9372 71.0259 7.0572C71.1593 7.1772 71.2259 7.32386 71.2259 7.4972V20.2572ZM84.9659 20.9572C84.7926 20.9572 84.6459 20.8839 84.5259 20.7372L78.8459 13.5972L79.7859 12.6572L85.5059 19.8972C85.5993 20.0305 85.6459 20.1705 85.6459 20.3172C85.6459 20.5305 85.5659 20.6905 85.4059 20.7972C85.2593 20.9039 85.1126 20.9572 84.9659 20.9572ZM84.7459 6.9172C84.9059 6.9172 85.0393 6.9772 85.1459 7.0972C85.2659 7.2172 85.3259 7.35053 85.3259 7.4972C85.3259 7.6572 85.2659 7.7972 85.1459 7.9172L76.0659 16.4172L75.9059 15.0572L84.3059 7.1172C84.4393 6.98386 84.5859 6.9172 84.7459 6.9172ZM75.5859 20.8772C75.3993 20.8772 75.2459 20.8172 75.1259 20.6972C75.0193 20.5772 74.9659 20.4305 74.9659 20.2572V7.4972C74.9659 7.32386 75.0259 7.1772 75.1459 7.0572C75.2659 6.9372 75.4193 6.8772 75.6059 6.8772C75.7793 6.8772 75.9259 6.9372 76.0459 7.0572C76.1659 7.1772 76.2259 7.32386 76.2259 7.4972V20.2572C76.2126 20.4305 76.1459 20.5772 76.0259 20.6972C75.9059 20.8172 75.7593 20.8772 75.5859 20.8772Z" fill="white"/>
</svg>
