<svg width="128" height="51" viewBox="0 0 128 51" fill="none" xmlns="http://www.w3.org/2000/svg">
<path d="M7.056 24.272C8.88 24.272 10.456 24.616 11.784 25.304C13.128 25.976 14.152 26.944 14.856 28.208C15.576 29.472 15.936 30.96 15.936 32.672C15.936 34.384 15.576 35.872 14.856 37.136C14.152 38.384 13.128 39.344 11.784 40.016C10.456 40.672 8.88 41 7.056 41H1.848V24.272H7.056ZM7.056 39.2C9.216 39.2 10.864 38.632 12 37.496C13.136 36.344 13.704 34.736 13.704 32.672C13.704 30.592 13.128 28.968 11.976 27.8C10.84 26.632 9.2 26.048 7.056 26.048H4.032V39.2H7.056ZM21.0008 26.048V31.64H27.0968V33.44H21.0008V39.2H27.8168V41H18.8168V24.248H27.8168V26.048H21.0008ZM44.9454 24.272L38.6334 41H36.1134L29.8014 24.272H32.1294L37.3854 38.696L42.6414 24.272H44.9454ZM49.5242 26.048V31.64H55.6202V33.44H49.5242V39.2H56.3402V41H47.3402V24.248H56.3402V26.048H49.5242ZM61.8289 39.224H67.6849V41H59.6449V24.272H61.8289V39.224ZM77.5883 41.168C76.0363 41.168 74.6203 40.808 73.3403 40.088C72.0603 39.352 71.0443 38.336 70.2923 37.04C69.5563 35.728 69.1883 34.256 69.1883 32.624C69.1883 30.992 69.5563 29.528 70.2923 28.232C71.0443 26.92 72.0603 25.904 73.3403 25.184C74.6203 24.448 76.0363 24.08 77.5883 24.08C79.1563 24.08 80.5803 24.448 81.8603 25.184C83.1403 25.904 84.1483 26.912 84.8843 28.208C85.6203 29.504 85.9883 30.976 85.9883 32.624C85.9883 34.272 85.6203 35.744 84.8843 37.04C84.1483 38.336 83.1403 39.352 81.8603 40.088C80.5803 40.808 79.1563 41.168 77.5883 41.168ZM77.5883 39.272C78.7563 39.272 79.8043 39 80.7323 38.456C81.6763 37.912 82.4123 37.136 82.9403 36.128C83.4843 35.12 83.7563 33.952 83.7563 32.624C83.7563 31.28 83.4843 30.112 82.9403 29.12C82.4123 28.112 81.6843 27.336 80.7563 26.792C79.8283 26.248 78.7723 25.976 77.5883 25.976C76.4043 25.976 75.3483 26.248 74.4203 26.792C73.4923 27.336 72.7563 28.112 72.2123 29.12C71.6843 30.112 71.4203 31.28 71.4203 32.624C71.4203 33.952 71.6843 35.12 72.2123 36.128C72.7563 37.136 73.4923 37.912 74.4203 38.456C75.3643 39 76.4203 39.272 77.5883 39.272ZM100.055 29.168C100.055 30.56 99.5754 31.72 98.6154 32.648C97.6714 33.56 96.2234 34.016 94.2714 34.016H91.0554V41H88.8714V24.272H94.2714C96.1594 24.272 97.5914 24.728 98.5674 25.64C99.5594 26.552 100.055 27.728 100.055 29.168ZM94.2714 32.216C95.4874 32.216 96.3834 31.952 96.9594 31.424C97.5354 30.896 97.8234 30.144 97.8234 29.168C97.8234 27.104 96.6394 26.072 94.2714 26.072H91.0554V32.216H94.2714ZM104.954 26.048V31.64H111.05V33.44H104.954V39.2H111.77V41H102.77V24.248H111.77V26.048H104.954ZM123.883 41L119.899 34.16H117.259V41H115.075V24.272H120.475C121.739 24.272 122.803 24.488 123.667 24.92C124.547 25.352 125.203 25.936 125.635 26.672C126.067 27.408 126.283 28.248 126.283 29.192C126.283 30.344 125.947 31.36 125.275 32.24C124.619 33.12 123.627 33.704 122.299 33.992L126.499 41H123.883ZM117.259 32.408H120.475C121.659 32.408 122.547 32.12 123.139 31.544C123.731 30.952 124.027 30.168 124.027 29.192C124.027 28.2 123.731 27.432 123.139 26.888C122.563 26.344 121.675 26.072 120.475 26.072H117.259V32.408Z" fill="white"/>
<path d="M7.58 6C8.56667 6 9.42667 6.18667 10.16 6.56C10.9067 6.93333 11.52 7.45333 12 8.12C12.48 8.77333 12.8333 9.52 13.06 10.36C13.3 11.2 13.42 12.08 13.42 13C13.42 14.28 13.2067 15.4533 12.78 16.52C12.3667 17.5733 11.7267 18.42 10.86 19.06C10.0067 19.6867 8.91333 20 7.58 20H2.48C2.32 20 2.18 19.94 2.06 19.82C1.94 19.7 1.88 19.56 1.88 19.4V6.6C1.88 6.44 1.94 6.3 2.06 6.18C2.18 6.06 2.32 6 2.48 6H7.58ZM7.38 18.82C8.51333 18.82 9.42667 18.56 10.12 18.04C10.8133 17.52 11.32 16.82 11.64 15.94C11.9733 15.0467 12.14 14.0667 12.14 13C12.14 12.2267 12.0467 11.4933 11.86 10.8C11.6867 10.0933 11.4067 9.47333 11.02 8.94C10.6467 8.39333 10.1533 7.96667 9.54 7.66C8.94 7.34 8.22 7.18 7.38 7.18H3L3.14 7V19.02L3.02 18.82H7.38ZM20.8373 7.54L15.9773 19.62C15.924 19.7533 15.8507 19.8533 15.7573 19.92C15.664 19.9867 15.5573 20.02 15.4373 20.02C15.2507 20.02 15.1107 19.9733 15.0173 19.88C14.924 19.7733 14.8707 19.6467 14.8573 19.5C14.844 19.4333 14.8507 19.3533 14.8773 19.26L20.1573 6.34C20.224 6.19333 20.304 6.09333 20.3973 6.04C20.504 5.97333 20.624 5.94 20.7573 5.94C20.8907 5.94 21.004 5.98 21.0973 6.06C21.204 6.12667 21.284 6.22 21.3373 6.34L26.5973 19.2C26.624 19.28 26.6373 19.36 26.6373 19.44C26.6373 19.6267 26.5773 19.7733 26.4573 19.88C26.3373 19.9733 26.1973 20.02 26.0373 20.02C25.904 20.02 25.784 19.9867 25.6773 19.92C25.584 19.84 25.5107 19.74 25.4573 19.62L20.4773 7.46L20.8373 7.54ZM17.1373 15.96L17.6373 14.78H23.8373L24.0773 15.96H17.1373ZM38.4353 20.2C37.422 20.2133 36.542 20.0533 35.7953 19.72C35.0486 19.3867 34.3353 18.8867 33.6553 18.22C33.5886 18.1667 33.5286 18.1 33.4753 18.02C33.4353 17.94 33.4153 17.8467 33.4153 17.74C33.4153 17.58 33.4753 17.4333 33.5953 17.3C33.7286 17.1667 33.8753 17.1 34.0353 17.1C34.1953 17.1 34.342 17.1667 34.4753 17.3C34.9953 17.86 35.582 18.2867 36.2353 18.58C36.902 18.8733 37.6153 19.02 38.3753 19.02C39.0153 19.02 39.582 18.92 40.0753 18.72C40.582 18.52 40.982 18.2333 41.2753 17.86C41.5686 17.4867 41.7153 17.0533 41.7153 16.56C41.7153 15.9467 41.5486 15.4533 41.2153 15.08C40.882 14.6933 40.442 14.38 39.8953 14.14C39.3486 13.8867 38.742 13.66 38.0753 13.46C37.5286 13.3 37.0086 13.12 36.5153 12.92C36.022 12.7067 35.582 12.4533 35.1953 12.16C34.8086 11.8533 34.5086 11.48 34.2953 11.04C34.082 10.6 33.9753 10.0667 33.9753 9.44C33.9753 8.73333 34.162 8.10667 34.5353 7.56C34.9086 7.01333 35.4353 6.58667 36.1153 6.28C36.8086 5.96 37.6086 5.8 38.5153 5.8C39.302 5.8 40.0553 5.93333 40.7753 6.2C41.5086 6.46667 42.0886 6.86 42.5153 7.38C42.7153 7.59333 42.8153 7.78667 42.8153 7.96C42.8153 8.09333 42.7486 8.22667 42.6153 8.36C42.482 8.49333 42.3353 8.56 42.1753 8.56C42.042 8.56 41.9286 8.51333 41.8353 8.42C41.6086 8.14 41.322 7.89333 40.9753 7.68C40.6286 7.45333 40.242 7.28 39.8153 7.16C39.402 7.04 38.9686 6.98 38.5153 6.98C37.8886 6.98 37.322 7.08 36.8153 7.28C36.322 7.46667 35.9286 7.74 35.6353 8.1C35.3553 8.46 35.2153 8.89333 35.2153 9.4C35.2153 9.96 35.3753 10.42 35.6953 10.78C36.0153 11.14 36.4353 11.44 36.9553 11.68C37.4753 11.9067 38.0286 12.12 38.6153 12.32C39.1886 12.48 39.7353 12.6667 40.2553 12.88C40.7886 13.08 41.2553 13.3333 41.6553 13.64C42.0686 13.9467 42.3886 14.3333 42.6153 14.8C42.8553 15.2667 42.9753 15.8533 42.9753 16.56C42.9753 17.24 42.782 17.8533 42.3953 18.4C42.0086 18.9467 41.4753 19.38 40.7953 19.7C40.1286 20.02 39.342 20.1867 38.4353 20.2ZM47.0658 19.38C47.0524 19.5533 46.9791 19.7 46.8458 19.82C46.7258 19.94 46.5858 20 46.4258 20C46.2391 20 46.0858 19.94 45.9658 19.82C45.8591 19.7 45.8058 19.5533 45.8058 19.38V6.62C45.8058 6.44667 45.8658 6.3 45.9858 6.18C46.1058 6.06 46.2591 6 46.4458 6C46.6058 6 46.7458 6.06 46.8658 6.18C46.9991 6.3 47.0658 6.44667 47.0658 6.62V19.38ZM58.5458 18.82C58.7058 18.82 58.8458 18.88 58.9658 19C59.0858 19.1067 59.1458 19.24 59.1458 19.4C59.1458 19.5733 59.0858 19.72 58.9658 19.84C58.8458 19.9467 58.7058 20 58.5458 20H51.4058C51.2324 20 51.0858 19.94 50.9658 19.82C50.8591 19.7 50.8058 19.56 50.8058 19.4V6.6C50.8058 6.44 50.8658 6.3 50.9858 6.18C51.1058 6.06 51.2591 6 51.4458 6C51.6058 6 51.7458 6.06 51.8658 6.18C51.9991 6.3 52.0658 6.44 52.0658 6.6V19.16L51.6858 18.82H58.5458ZM70.5742 5.98C70.7609 5.98 70.9076 6.03333 71.0142 6.14C71.1342 6.24667 71.1942 6.38 71.1942 6.54C71.1942 6.63333 71.1742 6.73333 71.1342 6.84L65.7942 19.6C65.7276 19.7333 65.6409 19.8333 65.5342 19.9C65.4276 19.9667 65.3209 20 65.2142 20C65.0942 20 64.9809 19.9667 64.8742 19.9C64.7676 19.8333 64.6942 19.74 64.6542 19.62L59.3342 6.88C59.3209 6.84 59.3076 6.79333 59.2942 6.74C59.2809 6.68667 59.2742 6.62667 59.2742 6.56C59.2742 6.38667 59.3342 6.24667 59.4542 6.14C59.5876 6.03333 59.7209 5.98 59.8542 5.98C60.1342 5.98 60.3342 6.12667 60.4542 6.42L65.4542 18.38H65.0942L70.0142 6.38C70.1476 6.11333 70.3342 5.98 70.5742 5.98ZM77.7514 7.54L72.8914 19.62C72.8381 19.7533 72.7647 19.8533 72.6714 19.92C72.5781 19.9867 72.4714 20.02 72.3514 20.02C72.1647 20.02 72.0247 19.9733 71.9314 19.88C71.8381 19.7733 71.7847 19.6467 71.7714 19.5C71.7581 19.4333 71.7647 19.3533 71.7914 19.26L77.0714 6.34C77.1381 6.19333 77.2181 6.09333 77.3114 6.04C77.4181 5.97333 77.5381 5.94 77.6714 5.94C77.8047 5.94 77.9181 5.98 78.0114 6.06C78.1181 6.12667 78.1981 6.22 78.2514 6.34L83.5114 19.2C83.5381 19.28 83.5514 19.36 83.5514 19.44C83.5514 19.6267 83.4914 19.7733 83.3714 19.88C83.2514 19.9733 83.1114 20.02 82.9514 20.02C82.8181 20.02 82.6981 19.9867 82.5914 19.92C82.4981 19.84 82.4247 19.74 82.3714 19.62L77.3914 7.46L77.7514 7.54ZM74.0514 15.96L74.5514 14.78H80.7514L80.9914 15.96H74.0514Z" fill="white"/>
</svg>
