<svg width="64" height="64" viewBox="0 0 64 64" fill="none" xmlns="http://www.w3.org/2000/svg">
<path d="M47.48 32.36C47.2935 32.1748 47.0724 32.0282 46.8293 31.9285C46.5861 31.8288 46.3257 31.778 46.0629 31.7789C45.8001 31.7798 45.5401 31.8325 45.2977 31.9339C45.0552 32.0353 44.8352 32.1835 44.65 32.37C44.4648 32.5565 44.3182 32.7776 44.2185 33.0207C44.1188 33.2639 44.068 33.5243 44.0689 33.7871C44.0698 34.0499 44.1225 34.3099 44.2239 34.5523C44.3253 34.7948 44.4735 35.0148 44.66 35.2C46.3523 36.8744 47.6957 38.8679 48.6123 41.065C49.5289 43.2622 50.0006 45.6193 50 48C50 50.44 42.98 54 32 54C21.02 54 14 50.44 14 48C13.9968 45.635 14.4597 43.2926 15.3623 41.1066C16.2648 38.9206 17.5893 36.9339 19.26 35.26C19.6325 34.8853 19.8416 34.3784 19.8416 33.85C19.8416 33.3216 19.6325 32.8147 19.26 32.44C18.8853 32.0675 18.3784 31.8584 17.85 31.8584C17.3216 31.8584 16.8147 32.0675 16.44 32.44C14.3902 34.4783 12.7655 36.9033 11.66 39.5743C10.5545 42.2453 9.99026 45.1093 10 48C10 54.5 21.34 58 32 58C42.66 58 54 54.5 54 48C54.0077 45.0905 53.435 42.2087 52.3155 39.5232C51.1959 36.8377 49.5521 34.4025 47.48 32.36Z" fill="black"/>
<path d="M32 34C34.7689 34 37.4757 33.1789 39.778 31.6406C42.0803 30.1022 43.8747 27.9157 44.9343 25.3576C45.9939 22.7994 46.2712 19.9845 45.731 17.2687C45.1908 14.553 43.8574 12.0584 41.8995 10.1005C39.9416 8.14258 37.447 6.80921 34.7313 6.26901C32.0155 5.72882 29.2006 6.00607 26.6424 7.06569C24.0843 8.12532 21.8978 9.91973 20.3594 12.222C18.8211 14.5243 18 17.2311 18 20C18 23.713 19.475 27.274 22.1005 29.8995C24.726 32.525 28.287 34 32 34ZM32 10C33.9778 10 35.9112 10.5865 37.5557 11.6853C39.2002 12.7841 40.4819 14.3459 41.2388 16.1732C41.9957 18.0004 42.1937 20.0111 41.8079 21.9509C41.422 23.8907 40.4696 25.6725 39.0711 27.0711C37.6725 28.4696 35.8907 29.422 33.9509 29.8079C32.0111 30.1937 30.0004 29.9957 28.1732 29.2388C26.3459 28.4819 24.7841 27.2002 23.6853 25.5557C22.5865 23.9112 22 21.9778 22 20C22 17.3478 23.0536 14.8043 24.9289 12.9289C26.8043 11.0536 29.3478 10 32 10Z" fill="black"/>
<path d="M27 24C28.4583 25.5092 32.5 27.6222 37 24" stroke="black" stroke-width="2"/>
<path d="M26.86 20.04C26.78 20.04 26.71 20.01 26.65 19.95C26.5967 19.89 26.57 19.82 26.57 19.74C26.57 19.7067 26.5767 19.6733 26.59 19.64C26.61 19.6 26.63 19.56 26.65 19.52L28.19 16.75C28.2367 16.6567 28.29 16.5933 28.35 16.56C28.4167 16.5267 28.4967 16.51 28.59 16.51C28.69 16.51 28.77 16.53 28.83 16.57C28.89 16.6033 28.9433 16.6633 28.99 16.75L30.53 19.53C30.55 19.5633 30.5667 19.5967 30.58 19.63C30.5933 19.6633 30.6 19.7 30.6 19.74C30.6 19.8133 30.5733 19.8833 30.52 19.95C30.4667 20.01 30.3933 20.04 30.3 20.04C30.2333 20.04 30.1733 20.0233 30.12 19.99C30.0667 19.95 30.0233 19.8967 29.99 19.83L28.52 17.12L28.67 17.11L27.18 19.83C27.14 19.8967 27.0933 19.95 27.04 19.99C26.9933 20.0233 26.9333 20.04 26.86 20.04Z" fill="black"/>
<path d="M26.65 19.95L26.2763 20.2822L26.2861 20.2932L26.2964 20.3036L26.65 19.95ZM26.59 19.64L26.1428 19.4164L26.1335 19.435L26.1258 19.4543L26.59 19.64ZM26.65 19.52L26.213 19.277L26.2077 19.2866L26.2028 19.2964L26.65 19.52ZM28.19 16.75L28.627 16.993L28.6323 16.9834L28.6372 16.9736L28.19 16.75ZM28.35 16.56L28.1264 16.1128L28.1167 16.1176L28.1072 16.1229L28.35 16.56ZM28.83 16.57L28.5527 16.986L28.5695 16.9973L28.5872 17.0071L28.83 16.57ZM28.99 16.75L28.5497 16.9871L28.5526 16.9923L28.99 16.75ZM30.53 19.53L30.0926 19.7723L30.0968 19.7798L30.1013 19.7872L30.53 19.53ZM30.58 19.63L31.0442 19.4443L31.0442 19.4443L30.58 19.63ZM30.52 19.95L30.8937 20.2822L30.9023 20.2725L30.9104 20.2623L30.52 19.95ZM30.12 19.99L29.82 20.39L29.837 20.4027L29.855 20.414L30.12 19.99ZM29.99 19.83L30.4372 19.6064L30.4335 19.5989L30.4295 19.5916L29.99 19.83ZM28.52 17.12L28.4867 16.6211L27.7087 16.673L28.0805 17.3584L28.52 17.12ZM28.67 17.11L29.1085 17.3502L29.5466 16.5504L28.6367 16.6111L28.67 17.11ZM27.18 19.83L27.6087 20.0872L27.6138 20.0788L27.6185 20.0702L27.18 19.83ZM27.04 19.99L27.3307 20.397L27.34 20.39L27.04 19.99ZM26.86 19.54C26.8842 19.54 26.9141 19.5449 26.9445 19.5579C26.9742 19.5707 26.9937 19.5866 27.0036 19.5964L26.2964 20.3036C26.4439 20.451 26.6387 20.54 26.86 20.54V19.54ZM27.0237 19.6178C27.0344 19.6298 27.0475 19.6489 27.0572 19.6745C27.067 19.7001 27.07 19.7233 27.07 19.74H26.07C26.07 19.9429 26.1419 20.131 26.2763 20.2822L27.0237 19.6178ZM27.07 19.74C27.07 19.775 27.0627 19.8046 27.0542 19.8257L26.1258 19.4543C26.0906 19.5421 26.07 19.6383 26.07 19.74H27.07ZM27.0372 19.8636C27.0572 19.8236 27.0772 19.7836 27.0972 19.7436L26.2028 19.2964C26.1828 19.3364 26.1628 19.3764 26.1428 19.4164L27.0372 19.8636ZM27.087 19.763L28.627 16.993L27.753 16.507L26.213 19.277L27.087 19.763ZM28.6372 16.9736C28.6473 16.9535 28.6517 16.9495 28.6475 16.9546C28.6428 16.9601 28.6257 16.9788 28.5928 16.9971L28.1072 16.1229C27.9242 16.2246 27.8126 16.3868 27.7428 16.5264L28.6372 16.9736ZM28.5736 17.0072C28.5556 17.0162 28.5552 17.01 28.59 17.01V16.01C28.4382 16.01 28.2778 16.0371 28.1264 16.1128L28.5736 17.0072ZM28.59 17.01C28.6074 17.01 28.6107 17.0118 28.6037 17.0101C28.596 17.0081 28.5766 17.002 28.5527 16.986L29.1073 16.154C28.9391 16.0418 28.7518 16.01 28.59 16.01V17.01ZM28.5872 17.0071C28.5604 16.9922 28.5458 16.9773 28.5413 16.9722C28.5371 16.9675 28.5409 16.9705 28.5498 16.987L29.4302 16.5129C29.3569 16.3768 29.2452 16.2287 29.0728 16.1329L28.5872 17.0071ZM28.5526 16.9923L30.0926 19.7723L30.9674 19.2877L29.4274 16.5077L28.5526 16.9923ZM30.1013 19.7872C30.1087 19.7996 30.1131 19.8091 30.1158 19.8157L31.0442 19.4443C31.0202 19.3843 30.9913 19.3271 30.9587 19.2728L30.1013 19.7872ZM30.1158 19.8157C30.1029 19.7836 30.1 19.7564 30.1 19.74H31.1C31.1 19.6436 31.0837 19.5431 31.0442 19.4443L30.1158 19.8157ZM30.1 19.74C30.1 19.7145 30.1049 19.6901 30.1128 19.6695C30.1203 19.6498 30.1283 19.6393 30.1296 19.6377L30.9104 20.2623C31.0225 20.1223 31.1 19.945 31.1 19.74H30.1ZM30.1463 19.6178C30.1696 19.5916 30.2008 19.569 30.2357 19.5547C30.2688 19.5412 30.2931 19.54 30.3 19.54V20.54C30.5106 20.54 30.7297 20.4667 30.8937 20.2822L30.1463 19.6178ZM30.3 19.54C30.3087 19.54 30.3223 19.5411 30.3388 19.5457C30.3556 19.5504 30.3714 19.5575 30.385 19.566L29.855 20.414C29.9926 20.5 30.1455 20.54 30.3 20.54V19.54ZM30.42 19.59C30.427 19.5953 30.4322 19.6006 30.4356 19.6047C30.4387 19.6086 30.4389 19.6098 30.4372 19.6064L29.5428 20.0536C29.6067 20.1814 29.6976 20.2982 29.82 20.39L30.42 19.59ZM30.4295 19.5916L28.9595 16.8816L28.0805 17.3584L29.5505 20.0684L30.4295 19.5916ZM28.5533 17.6189L28.7033 17.6089L28.6367 16.6111L28.4867 16.6211L28.5533 17.6189ZM28.2315 16.8698L26.7415 19.5898L27.6185 20.0702L29.1085 17.3502L28.2315 16.8698ZM26.7513 19.5728C26.7391 19.593 26.7337 19.5947 26.74 19.59L27.34 20.39C27.4529 20.3053 27.5409 20.2003 27.6087 20.0872L26.7513 19.5728ZM26.7494 19.5831C26.8085 19.5409 26.8582 19.54 26.86 19.54V20.54C27.0084 20.54 27.1782 20.5057 27.3306 20.3969L26.7494 19.5831Z" fill="black"/>
<path d="M33.86 20.04C33.78 20.04 33.71 20.01 33.65 19.95C33.5967 19.89 33.57 19.82 33.57 19.74C33.57 19.7067 33.5767 19.6733 33.59 19.64C33.61 19.6 33.63 19.56 33.65 19.52L35.19 16.75C35.2367 16.6567 35.29 16.5933 35.35 16.56C35.4167 16.5267 35.4967 16.51 35.59 16.51C35.69 16.51 35.77 16.53 35.83 16.57C35.89 16.6033 35.9433 16.6633 35.99 16.75L37.53 19.53C37.55 19.5633 37.5667 19.5967 37.58 19.63C37.5933 19.6633 37.6 19.7 37.6 19.74C37.6 19.8133 37.5733 19.8833 37.52 19.95C37.4667 20.01 37.3933 20.04 37.3 20.04C37.2333 20.04 37.1733 20.0233 37.12 19.99C37.0667 19.95 37.0233 19.8967 36.99 19.83L35.52 17.12L35.67 17.11L34.18 19.83C34.14 19.8967 34.0933 19.95 34.04 19.99C33.9933 20.0233 33.9333 20.04 33.86 20.04Z" fill="black"/>
<path d="M33.65 19.95L33.2763 20.2822L33.2861 20.2932L33.2964 20.3036L33.65 19.95ZM33.59 19.64L33.1428 19.4164L33.1335 19.435L33.1258 19.4543L33.59 19.64ZM33.65 19.52L33.213 19.277L33.2077 19.2866L33.2028 19.2964L33.65 19.52ZM35.19 16.75L35.627 16.993L35.6323 16.9834L35.6372 16.9736L35.19 16.75ZM35.35 16.56L35.1264 16.1128L35.1167 16.1176L35.1072 16.1229L35.35 16.56ZM35.83 16.57L35.5527 16.986L35.5695 16.9973L35.5872 17.0071L35.83 16.57ZM35.99 16.75L35.5497 16.9871L35.5526 16.9923L35.99 16.75ZM37.53 19.53L37.0926 19.7723L37.0968 19.7798L37.1013 19.7872L37.53 19.53ZM37.58 19.63L38.0442 19.4443L38.0442 19.4443L37.58 19.63ZM37.52 19.95L37.8937 20.2822L37.9023 20.2725L37.9104 20.2623L37.52 19.95ZM37.12 19.99L36.82 20.39L36.837 20.4027L36.855 20.414L37.12 19.99ZM36.99 19.83L37.4372 19.6064L37.4335 19.5989L37.4295 19.5916L36.99 19.83ZM35.52 17.12L35.4867 16.6211L34.7087 16.673L35.0805 17.3584L35.52 17.12ZM35.67 17.11L36.1085 17.3502L36.5466 16.5504L35.6367 16.6111L35.67 17.11ZM34.18 19.83L34.6087 20.0872L34.6138 20.0788L34.6185 20.0702L34.18 19.83ZM34.04 19.99L34.3307 20.397L34.34 20.39L34.04 19.99ZM33.86 19.54C33.8842 19.54 33.9141 19.5449 33.9445 19.5579C33.9742 19.5707 33.9937 19.5866 34.0036 19.5964L33.2964 20.3036C33.4439 20.451 33.6387 20.54 33.86 20.54V19.54ZM34.0237 19.6178C34.0344 19.6298 34.0475 19.6489 34.0572 19.6745C34.067 19.7001 34.07 19.7233 34.07 19.74H33.07C33.07 19.9429 33.1419 20.131 33.2763 20.2822L34.0237 19.6178ZM34.07 19.74C34.07 19.775 34.0627 19.8046 34.0542 19.8257L33.1258 19.4543C33.0906 19.5421 33.07 19.6383 33.07 19.74H34.07ZM34.0372 19.8636C34.0572 19.8236 34.0772 19.7836 34.0972 19.7436L33.2028 19.2964C33.1828 19.3364 33.1628 19.3764 33.1428 19.4164L34.0372 19.8636ZM34.087 19.763L35.627 16.993L34.753 16.507L33.213 19.277L34.087 19.763ZM35.6372 16.9736C35.6473 16.9535 35.6517 16.9495 35.6475 16.9546C35.6428 16.9601 35.6257 16.9788 35.5928 16.9971L35.1072 16.1229C34.9242 16.2246 34.8126 16.3868 34.7428 16.5264L35.6372 16.9736ZM35.5736 17.0072C35.5556 17.0162 35.5552 17.01 35.59 17.01V16.01C35.4382 16.01 35.2778 16.0371 35.1264 16.1128L35.5736 17.0072ZM35.59 17.01C35.6074 17.01 35.6107 17.0118 35.6037 17.0101C35.596 17.0081 35.5766 17.002 35.5527 16.986L36.1073 16.154C35.9391 16.0418 35.7518 16.01 35.59 16.01V17.01ZM35.5872 17.0071C35.5604 16.9922 35.5458 16.9773 35.5413 16.9722C35.5371 16.9675 35.5409 16.9705 35.5498 16.987L36.4302 16.5129C36.3569 16.3768 36.2452 16.2287 36.0728 16.1329L35.5872 17.0071ZM35.5526 16.9923L37.0926 19.7723L37.9674 19.2877L36.4274 16.5077L35.5526 16.9923ZM37.1013 19.7872C37.1087 19.7996 37.1131 19.8091 37.1158 19.8157L38.0442 19.4443C38.0202 19.3843 37.9913 19.3271 37.9587 19.2728L37.1013 19.7872ZM37.1158 19.8157C37.1029 19.7836 37.1 19.7564 37.1 19.74H38.1C38.1 19.6436 38.0837 19.5431 38.0442 19.4443L37.1158 19.8157ZM37.1 19.74C37.1 19.7145 37.1049 19.6901 37.1128 19.6695C37.1203 19.6498 37.1283 19.6393 37.1296 19.6377L37.9104 20.2623C38.0225 20.1223 38.1 19.945 38.1 19.74H37.1ZM37.1463 19.6178C37.1696 19.5916 37.2008 19.569 37.2357 19.5547C37.2688 19.5412 37.2931 19.54 37.3 19.54V20.54C37.5106 20.54 37.7297 20.4667 37.8937 20.2822L37.1463 19.6178ZM37.3 19.54C37.3087 19.54 37.3223 19.5411 37.3388 19.5457C37.3556 19.5504 37.3714 19.5575 37.385 19.566L36.855 20.414C36.9926 20.5 37.1455 20.54 37.3 20.54V19.54ZM37.42 19.59C37.427 19.5953 37.4322 19.6006 37.4356 19.6047C37.4387 19.6086 37.4389 19.6098 37.4372 19.6064L36.5428 20.0536C36.6067 20.1814 36.6976 20.2982 36.82 20.39L37.42 19.59ZM37.4295 19.5916L35.9595 16.8816L35.0805 17.3584L36.5505 20.0684L37.4295 19.5916ZM35.5533 17.6189L35.7033 17.6089L35.6367 16.6111L35.4867 16.6211L35.5533 17.6189ZM35.2315 16.8698L33.7415 19.5898L34.6185 20.0702L36.1085 17.3502L35.2315 16.8698ZM33.7513 19.5728C33.7391 19.593 33.7337 19.5947 33.74 19.59L34.34 20.39C34.4529 20.3053 34.5409 20.2003 34.6087 20.0872L33.7513 19.5728ZM33.7494 19.5831C33.8085 19.5409 33.8582 19.54 33.86 19.54V20.54C34.0084 20.54 34.1782 20.5057 34.3306 20.3969L33.7494 19.5831Z" fill="black"/>
</svg>
